<svg xmlns="http://www.w3.org/2000/svg" viewBox="0 0 23.444 22.596"><title>Honor_Logo</title><polygon points="5.274 1.079 7.705 6.921 4.963 5.589 7.042 8.563 0 10.679 6.884 10.89 1.737 14.09 8.305 12.795 6.316 19.616 10.737 14.027 12.182 22.596 12.347 14.721 14.084 17.279 13.579 13.963 16.768 17.027 15.189 12.953 21.663 14.5 17.779 10.616 21.442 9.637 16.295 8.69 20.337 5.405 14.937 7.995 16.737 3.984 13.074 6.858 13.011 2.279 11.368 6.669 8.4 0.542 8.653 4.679 5.274 1.079"/><path d="M15.73.852c1.9-.167,6.5,2.51,6.957,3.782A5.607,5.607,0,0,1,21.2,5.875a13.156,13.156,0,0,0-3.127-2.16A20.3,20.3,0,0,0,14.1,2.532C14.1,2.206,15.73.852,15.73.852Z" transform="translate(-0.402 -0.845)"/><path d="M1.35,7.829C1.46,6.7,4.776,4.005,6.043,3.842c.2-.025,1.145,1.29,1.086,1.429a23.883,23.883,0,0,1-2,1.639c-.963.841-1.776,1.772-2.044,1.772a3.416,3.416,0,0,1-.869-.351C1.783,8.129,1.339,7.935,1.35,7.829Z" transform="translate(-0.402 -0.845)"/><path d="M10.8,18.633c.071.241-1.232,1.673-1.487,1.7-.944.105-5.981-2.925-7.063-4.757a13.06,13.06,0,0,1,1.939-1.113c.035,0,1.645,1.322,3.032,2.226A30.212,30.212,0,0,0,10.8,18.633Z" transform="translate(-0.402 -0.845)"/><path d="M22.223,9.377c1.145,0,1.187,1.145,1.228,1.393a10.316,10.316,0,0,1,.146,2.02c-.235.682-3.616,3.723-4.437,3.787s-.663-1.39-2.052-1.832S22.223,9.377,22.223,9.377Z" transform="translate(-0.402 -0.845)"/><path d="M19.192,17.208c-.158.3.322.573.316.833-.012.509-.325.691-1.22,1.784-.112.137.211.073.6-.077.93-.36,5.016-4.5,4.96-5.362a9.625,9.625,0,0,0-.125-1.088,28.867,28.867,0,0,1-2.034,2.055A25.016,25.016,0,0,1,19.192,17.208Z" transform="translate(-0.402 -0.845)"/></svg>