<svg id="Layer_1" data-name="Layer 1" xmlns="http://www.w3.org/2000/svg" viewBox="0 0 1000 1000"><defs><style>.cls-1{fill:#d8363f;}.cls-2{fill:#f7f7f7;}</style></defs><polygon class="cls-1" points="412.94 321.98 407.12 205.69 355.34 268.79 282.89 238.76 379.32 389.65 412.94 321.98"/><polygon class="cls-1" points="316.85 411.3 190.53 420.83 237.16 490.22 344.02 483.73 316.85 411.3"/><polygon class="cls-1" points="333.26 420.68 394.21 584.82 414.66 484.09 333.26 420.68"/><polygon class="cls-1" points="348.6 498.31 247.72 505.92 336.46 637.94 381.09 582.48 348.6 498.31"/><polygon class="cls-1" points="394.21 584.82 344.9 650.49 362.52 676.71 391.56 658.5 400.69 615.32 386.17 624.43 394.21 584.82"/><polygon class="cls-1" points="717.1 238.76 644.65 268.79 592.87 205.69 587.05 321.98 620.67 389.65 717.1 238.76"/><polygon class="cls-1" points="599.24 389.64 552.96 386.27 500 264.21 447.03 386.27 400.76 389.64 431.05 327.31 427.12 193.73 500 80.82 572.87 193.73 568.94 327.31 599.24 389.64"/><polygon class="cls-1" points="683.14 411.3 655.98 483.73 762.83 490.22 809.47 420.83 683.14 411.3"/><polygon class="cls-1" points="585.33 484.09 605.78 584.82 666.74 420.68 585.33 484.09"/><polygon class="cls-1" points="618.9 582.48 663.53 637.94 752.27 505.92 651.4 498.31 618.9 582.48"/><polygon class="cls-1" points="613.82 624.43 599.31 615.32 608.44 658.5 637.47 676.71 655.1 650.49 605.78 584.82 613.82 624.43"/><polygon class="cls-1" points="596.79 651.2 500 590.5 403.2 651.2 411.92 608.28 500 553.06 588.08 608.28 596.79 651.2"/><polygon class="cls-1" points="570.75 480.24 595.05 595.34 500 535.73 404.94 595.34 429.26 480.24 340.11 409.54 456.37 400.77 500 300.33 543.62 400.77 659.88 409.54 570.75 480.24"/><path class="cls-2" d="M19,917.57,0,740.45H34.62l9.76,111.81,10-111.81h33l9.46,111.81,9.46-111.81h35L122,917.57H79.51l-8.86-85.24-8.46,85.24Z"/><path class="cls-2" d="M158.5,917.57V740.45h34.22V917.57Z"/><path class="cls-2" d="M215.05,917.57V740.45h35.43V887.38h36.43v30.19Z"/><path class="cls-2" d="M305.22,917.57V740.45h48.71q19.13,0,28.78,10.61t9.66,31.05V865q0,25.15-8.8,38.85t-30.85,13.68Zm35.63-31.29H347q9.76,0,9.77-9.47V785.43q0-8.85-2.37-11.42t-9.61-2.57h-3.92Z"/><polygon class="cls-2" points="451.14 883.04 451.14 842.49 484.55 842.49 484.55 809.19 415.12 809.19 415.12 917.57 488.28 917.57 488.28 883.04 451.14 883.04"/><rect class="cls-1" x="415.12" y="740.45" width="70.85" height="34.22"/><path class="cls-2" d="M508.19,917.57V740.45h54.35q13.59,0,20.53,6.19T592.38,764a126.6,126.6,0,0,1,2.36,26.11q0,14.49-3.67,23.15t-13.84,12q8.35,1.71,11.73,8.3t3.37,17.06v67H557.41V848.23q0-7.74-3.17-9.61T544,836.76v80.81Zm36-111.51h8.56q7.35,0,7.34-16,0-10.37-1.61-13.59t-6-3.21h-8.26Z"/><path class="cls-2" d="M610,917.57v-32.2l40.56-112.32H614v-32.6h74v31L646.67,885h39.55v32.6Z"/><path class="cls-2" d="M749.71,919.18q-21.23,0-32.45-12.83T706,869.27V785.13q0-22.74,11.12-34.52t32.55-11.77q21.45,0,32.56,11.77t11.12,34.52v84.14q0,24.26-11.22,37.08T749.71,919.18Zm.31-32.6q8,0,8.05-15.6V784.53q0-13.08-7.85-13.09-8.87,0-8.86,13.39v86.35q0,8.25,2,11.82C744.72,885.39,746.93,886.58,750,886.58Z"/><path class="cls-2" d="M815.93,917.57V740.45h36.43l16.31,84.84V740.45h34.21V917.57H868.26L850.55,829v88.56Z"/><polygon class="cls-2" points="962.87 883.04 962.87 842.49 996.28 842.49 996.28 809.19 926.82 809.19 926.82 917.57 1000 917.57 1000 883.04 962.87 883.04"/><rect class="cls-1" x="926.82" y="740.45" width="70.85" height="34.22"/></svg>