<?xml version="1.0" encoding="UTF-8" standalone="no"?>
<!-- Created with Inkscape (http://www.inkscape.org/) -->

<svg
   width="128"
   height="128"
   viewBox="0 0 33.866671 33.866667"
   version="1.1"
   id="svg5"
   inkscape:version="1.1.1 (3bf5ae0d25, 2021-09-20)"
   sodipodi:docname="gen_aligned.svg"
   inkscape:export-xdpi="192.00002"
   inkscape:export-ydpi="192.00002"
   xmlns:inkscape="http://www.inkscape.org/namespaces/inkscape"
   xmlns:sodipodi="http://sodipodi.sourceforge.net/DTD/sodipodi-0.dtd"
   xmlns="http://www.w3.org/2000/svg"
   xmlns:svg="http://www.w3.org/2000/svg">
  <sodipodi:namedview
     id="namedview7"
     pagecolor="#ffffff"
     bordercolor="#999999"
     borderopacity="1"
     inkscape:pageshadow="0"
     inkscape:pageopacity="0"
     inkscape:pagecheckerboard="0"
     inkscape:document-units="mm"
     showgrid="true"
     fit-margin-top="3"
     fit-margin-left="3"
     fit-margin-right="3"
     fit-margin-bottom="3"
     units="px"
     inkscape:zoom="4"
     inkscape:cx="79.125"
     inkscape:cy="97.25"
     inkscape:window-width="1748"
     inkscape:window-height="1368"
     inkscape:window-x="0"
     inkscape:window-y="0"
     inkscape:window-maximized="0"
     inkscape:current-layer="layer1"
     inkscape:snap-global="false">
    <inkscape:grid
       type="xygrid"
       id="grid822"
       empspacing="8"
       enabled="true" />
  </sodipodi:namedview>
  <defs
     id="defs2" />
  <g
     inkscape:label="Layer 1"
     inkscape:groupmode="layer"
     id="layer1"
     transform="translate(-140.75032,-91.980682)">
    <path
       id="rect1135"
       style="fill:#1d84e3;fill-opacity:1;stroke:none;stroke-width:0.763539;stroke-opacity:0.261072"
       d="m 147.10032,96.214015 c -5.1598,0.386681 -6.09088,2.355106 -6.35,8.055075 v 0.37359 h 3.63497 c 0.33089,0 0.59782,0.26453 0.59806,0.59215 l 0.001,1.96269 c 2.4e-4,0.32761 -0.26732,0.59215 -0.59806,0.59215 h -3.63497 l -0.001,3.23801 h 3.63497 c 0.33089,0 0.59781,0.26456 0.59806,0.59217 l 0.001,1.92759 c 2.5e-4,0.32761 -0.26732,0.59215 -0.59806,0.59215 h -3.63497 l -0.001,3.21464 h 3.63497 c 0.33089,0 0.59781,0.26454 0.59806,0.59216 l 0.001,1.951 c 2.4e-4,0.32761 -0.26738,0.58613 -0.59806,0.59215 h -3.63497 l -0.001,2.63534 c -1.8e-4,0.32758 0.26734,0.59214 0.5981,0.59214 h 32.67057 c 0.33088,0 0.59653,-0.26454 0.59653,-0.59214 l 0.001,-2.63534 h -3.6333 c -0.33089,0 -0.59777,-0.26454 -0.59802,-0.59215 l -0.001,-1.92455 c -2.5e-4,-0.32762 0.26734,-0.59216 0.59802,-0.59216 h 3.6333 l 0.001,-3.25249 h -3.6333 c -0.33089,0 -0.59777,-0.26454 -0.59802,-0.59215 l -0.001,-1.91319 c -2.5e-4,-0.32761 0.26734,-0.59217 0.59802,-0.59217 h 3.6333 l 0.001,-3.25249 h -3.6333 c -0.33089,0 -0.59777,-0.26451 -0.59802,-0.59215 l -0.001,-1.91321 c -2.5e-4,-0.3276 0.26734,-0.59215 0.59802,-0.59215 h 3.6333 v -0.37359 c -0.25919,-5.699953 -1.18878,-7.706394 -6.34853,-8.093075 z m 8.46667,4.233335 h 6.35 l -2.11667,8.46667 h 6.35 l -10.58333,12.7 v -8.46667 h -4.23334 z"
       sodipodi:nodetypes="cccssssccssssccsssscsssscssssccssssccsssscccccccccccc" />
  </g>
</svg>
