<?xml version="1.0" encoding="UTF-8"?>
<svg width="128" height="128" version="1.1" viewBox="0 0 33.867 33.867" xmlns="http://www.w3.org/2000/svg">
<g transform="translate(-140.75 -91.981)">
<path d="m148.23 95.384c-5.0391 0.38122-6.8285 3.2816-7.0816 8.901v0.36833h3.9982c0.32313 0 0.58406 0.26078 0.58406 0.58378v1.798c0 0.32298-0.26107 0.58378-0.58406 0.58378h-3.9982v2.8796h3.9982c0.32313 0 0.58406 0.2608 0.58406 0.58379v1.798c0 0.32299-0.26107 0.58379-0.58406 0.58379h-3.9982v2.8797h3.9982c0.32313 0 0.58406 0.26079 0.58406 0.58378v1.798c0 0.32299-0.26107 0.58379-0.58406 0.58379h-3.9982v2.5506c0 0.32295 0.26108 0.58377 0.58409 0.58377h31.906c0.32313 0 0.58258-0.2608 0.58258-0.58377v-2.5506h-4.1336c-0.32315 0-0.58403-0.2608-0.58403-0.58379v-1.798c0-0.32299 0.26108-0.58378 0.58403-0.58378h4.1336v-2.8797h-4.1336c-0.32315 0-0.58403-0.2608-0.58403-0.58379v-1.798c0-0.32299 0.26108-0.58379 0.58403-0.58379h4.1336v-2.8796h-4.1336c-0.32315 0-0.58403-0.26078-0.58403-0.58378v-1.798c0-0.32298 0.26108-0.58378 0.58403-0.58378h4.1336v-0.36833c-0.25313-5.6194-2.0425-8.5198-7.0815-8.901h-18.908zm7.7137 4.9688h5.7561l-2.5401 7.4539h6.0125l-9.5387 12.536 0.35681-8.2036h-4.218z"/>
</g>
</svg>
