<?xml version="1.0" encoding="utf-8"?>
<!-- Generator: Adobe Illustrator 23.0.3, SVG Export Plug-In . SVG Version: 6.00 Build 0)  -->
<svg version="1.1" xmlns="http://www.w3.org/2000/svg" xmlns:xlink="http://www.w3.org/1999/xlink" x="0px" y="0px"
	 viewBox="0 0 24 24" style="enable-background:new 0 0 24 24;" xml:space="preserve">
<style type="text/css">
	.st0{fill:none;}
	.st1{fill:#FF004E;}
	.st2{fill:#00AA09;}
</style>
<g id="Layer_1">
	<path class="st0" d="M0,0h24v24H0V0z"/>
	<path class="st1" d="M5.6,10.3c0,1.4,1.1,2.5,2.5,2.5c0.5,0,1-0.2,1.4-0.4l0,0.2c0,1.4,1.1,2.5,2.5,2.5s2.5-1.1,2.5-2.5l0-0.2
		c0.4,0.3,0.9,0.4,1.4,0.4c1.4,0,2.5-1.1,2.5-2.5c0-1-0.6-1.9-1.4-2.3c0.8-0.4,1.4-1.3,1.4-2.3c0-1.4-1.1-2.5-2.5-2.5
		c-0.5,0-1,0.2-1.4,0.4l0-0.2C14.5,2.1,13.4,1,12,1S9.5,2.1,9.5,3.5l0,0.2C9.1,3.4,8.6,3.3,8.1,3.3c-1.4,0-2.5,1.1-2.5,2.5
		c0,1,0.6,1.8,1.4,2.3C6.2,8.4,5.6,9.3,5.6,10.3z M12,5.5c1.4,0,2.5,1.1,2.5,2.5s-1.1,2.5-2.5,2.5S9.5,9.4,9.5,8S10.6,5.5,12,5.5z"
		/>
</g>
<g id="Layer_2">
	<path class="st2" d="M12,22c4.6,0,8.3-3.4,8.9-7.8c0.1-0.6-0.5-1.2-1.1-1.1C15.4,13.7,12,17.4,12,22z M3.1,14.2
		C3.7,18.6,7.4,22,12,22c0-4.6-3.4-8.3-7.8-8.9C3.6,13,3,13.6,3.1,14.2z"/>
</g>
</svg>
